<svg viewBox="0 0 45 44" version="1.1" xmlns="http://www.w3.org/2000/svg"><path fill="#000000"  stroke="none" opacity="1" d="M 34.5 9 Q 36.8 8.3 36 10.5 L 36.5 12 L 29 14 Q 27.5 10.2 30.5 11 L 34.5 9 Z "/><path fill="#000000"  stroke="none" opacity="1" d="M 17.5 10 Q 24 9 25 13.5 L 26 17.5 L 22.5 22 L 18.5 23 L 13 18.5 L 13 14.5 L 17.5 10 Z "/><path fill="#000000"  stroke="none" opacity="1" d="M 30 16 L 38 16 L 38 19 L 34.5 18 L 30 19 L 30 16 Z "/><path fill="#000000"  stroke="none" opacity="1" d="M 30.5 20 L 37 23.5 L 33.5 25 L 29 22.5 L 30.5 20 Z "/><path fill="#000000"  stroke="none" opacity="1" d="M 15.5 24 L 19.5 29 L 23.5 24 L 30 28.5 L 32 35 L 12 35 L 12 26 L 15.5 24 Z "/></svg>